<svg xmlns="http://www.w3.org/2000/svg" xmlns:xlink="http://www.w3.org/1999/xlink" width="23" height="20" viewBox="0 0 23 20"><defs><path id="a" d="M352.67 459a.33.33 0 0 1-.32-.33v-5.93h-.03a.33.33 0 0 1-.32-.33v-1.39c0-.18.15-.32.32-.32h19.36c.17 0 .32.14.32.32v1.4c0 .17-.15.32-.32.32h-.03v5.93c0 .18-.14.33-.32.33zM372 442.33v1.39c0 .18-.15.32-.32.32h-3.83v1.12c.79.15 1.39.85 1.39 1.69 0 .18-.15.32-.33.32h-1.06v.03c0 .18-.14.32-.32.32a.32.32 0 0 1-.32-.32v-.03h-1.06a.33.33 0 0 1-.33-.32c0-.84.6-1.54 1.39-1.69v-1.12h-4.89v1.12c.79.15 1.39.85 1.39 1.69 0 .18-.15.32-.33.32h-1.06v.03c0 .18-.14.32-.32.32a.32.32 0 0 1-.32-.32v-.03h-1.06a.33.33 0 0 1-.33-.32c0-.84.6-1.54 1.39-1.69v-1.12h-4.89v1.12c.8.15 1.39.85 1.39 1.69 0 .18-.15.32-.33.32h-1.06v.03c0 .18-.14.32-.32.32a.32.32 0 0 1-.32-.32v-.03h-1.06a.33.33 0 0 1-.33-.32c0-.84.6-1.54 1.39-1.69v-1.12h-3.83a.32.32 0 0 1-.32-.32v-1.4c0-.17.15-.32.32-.32h19.36c.17 0 .32.15.32.33z"/></defs><g transform="translate(-350 -440)"><use fill="#8b8175" xlink:href="#a"/></g></svg>