<svg xmlns="http://www.w3.org/2000/svg" xmlns:xlink="http://www.w3.org/1999/xlink" width="21" height="21" viewBox="0 0 21 21"><defs><path id="a" d="M371 595v18h-18v-18zm-1.2 16.8v-15.6h-15.6v3.35h1.25v-2.1h8.2v1.2h-7v7.3h-1.2v-5.2h-1.25v11.05h10.7v-1.25h-9.45v-3.3h1.2v2.1h10.7v-4.67h-1.26v3.41h-2.54v-1.2h1.34v-5.78h-1.24v2.43h-2.1v.91h2.1v1.2h-3.3v-3.3h2.1v-1.24h-3.34v5.78h2.99v1.2h-4.2v-8.18h8.2v3.57h1.25v-4.84h-2.45v-1.2h3.65v13.11h-2.46v1.25z"/></defs><g transform="translate(-351 -593)"><use fill="#8b8175" xlink:href="#a"/></g></svg>