<svg xmlns="http://www.w3.org/2000/svg" xmlns:xlink="http://www.w3.org/1999/xlink" width="22" height="22" viewBox="0 0 22 22"><defs><path id="a" d="M370 392.9V409h-19v-2.48c0-.41.33-.74.74-.74h1.51v-4.45l-.6.5a.32.32 0 0 1-.46-.04.32.32 0 0 1 .05-.46l13.7-11.26.03-.02.06-.03.07-.01.04-.01.08.02.05.01.05.03.05.05h.01l.02.04.04.06v.07l.02.04v5.15h.23a.1.1 0 0 0 .09-.09v-1.74c0-.41.33-.74.74-.74zm-4.19 2.57V391l-2.57 2.12v4.93h.32v-1.84c0-.4.33-.74.74-.74zm-3.22 2.58v-4.4l-2.25 1.85v5.13h.23a.1.1 0 0 0 .1-.1v-1.74c0-.4.32-.74.73-.74zm-2.9 2.58v-4.6l-2.57 2.12v5.05h.23a.1.1 0 0 0 .1-.09v-1.75c0-.4.32-.73.73-.73zm-5.8 5.15h.24a.1.1 0 0 0 .09-.1v-1.74c0-.4.33-.74.74-.74h1.51v-4.52l-2.57 2.12z"/></defs><g transform="translate(-349 -388)"><use fill="#8b8175" xlink:href="#a"/></g></svg>