<svg xmlns="http://www.w3.org/2000/svg" xmlns:xlink="http://www.w3.org/1999/xlink" width="22" height="20" viewBox="0 0 22 20"><defs><path id="a" d="M372 558.7v1.3h-19v-1.3h1.19v-11.76H353V543h19v3.94h-1.19v11.76zm-4.84 0v-7.4a6.08 6.08 0 0 1-2.4-1.05c-.75-.47-1.39-.88-2.26-.88-.87 0-1.51.4-2.25.88-.68.43-1.43.91-2.41 1.06v7.39h1.67c-.26-.4-.4-.9-.43-1.43-.03-1.04.3-2.31.3-2.37l.24-.93 1.36 1.07 1.52-2.3 1.52 2.3 1.36-1.07.24.93c0 .06.33 1.33.3 2.37a2.8 2.8 0 0 1-.43 1.43z"/></defs><g transform="translate(-351 -541)"><use fill="#8b8175" xlink:href="#a"/></g></svg>