<svg xmlns="http://www.w3.org/2000/svg" xmlns:xlink="http://www.w3.org/1999/xlink" width="15" height="24" viewBox="0 0 15 24"><defs><path id="a" d="M369.99 244.55v14.58c0 .48-.4.87-.87.87h-11.24a.87.87 0 0 1-.87-.87v-14.58c0-.48.39-.87.87-.87h3.31a184.5 184.5 0 0 0-.45-3.79c-.13-.87.38-.89.74-.89h4.05c1.02 0 .72.71.67 1.21l-.42 3.47h3.34c.48 0 .87.39.87.87zm-7.23-3.42a.82.82 0 0 0 1.65 0 .82.82 0 0 0-1.65 0z"/></defs><g transform="translate(-356 -237)"><use fill="#8b8175" xlink:href="#a"/></g></svg>