<svg xmlns="http://www.w3.org/2000/svg" xmlns:xlink="http://www.w3.org/1999/xlink" width="22" height="22" viewBox="0 0 22 22"><defs><path id="a" d="M367.16 697.93a2.66 2.66 0 0 1-2.92-2.44c-.06-.62.13-1.22.51-1.7.4-.49.94-.79 1.55-.85.43-.04.8.28.85.71a.78.78 0 0 1-.7.86.73.73 0 0 0-.5.27.76.76 0 0 0-.17.56c.03.3.18.58.4.77.24.2.53.29.83.26a1.62 1.62 0 0 0 1.43-1.78 2.23 2.23 0 0 0-.78-1.5 2.15 2.15 0 0 0-1.6-.5 2.97 2.97 0 0 0-2.64 3.26h-4.84a2.97 2.97 0 0 0-2.63-3.26 2.15 2.15 0 0 0-1.6.5c-.46.37-.74.9-.8 1.5-.08.9.56 1.69 1.44 1.78a1.14 1.14 0 0 0 1.23-1.03.76.76 0 0 0-.17-.56.73.73 0 0 0-.5-.27.78.78 0 0 1-.7-.86.78.78 0 0 1 .85-.7c.6.05 1.16.35 1.55.83.38.49.57 1.1.5 1.71a2.72 2.72 0 0 1-.96 1.84 2.62 2.62 0 0 1-1.95.6 3.2 3.2 0 0 1-2.82-3.5 3.8 3.8 0 0 1 1.34-2.56c.68-.57 1.5-.87 2.37-.87h10.62a3.8 3.8 0 0 1 3.63 3.43 3.2 3.2 0 0 1-2.82 3.5zm-1.74 10.57c0 .83-.66 1.5-1.47 1.5h-5.9c-.81 0-1.47-.67-1.47-1.5 0-.75.54-1.38 1.25-1.49v-10.38h6.34V707c.71.11 1.25.74 1.25 1.49zm-5.27-3.35c0 .47.38.86.85.86s.85-.39.85-.86v-5.78a.86.86 0 0 0-.85-.87.86.86 0 0 0-.85.87z"/></defs><g transform="translate(-350 -689)"><use fill="#8b8175" xlink:href="#a"/></g></svg>