<svg xmlns="http://www.w3.org/2000/svg" xmlns:xlink="http://www.w3.org/1999/xlink" width="21" height="23" viewBox="0 0 21 23"><defs><path id="a" d="M371 657.92v1.66c0 .23-.19.42-.41.42H352.4a.42.42 0 0 1-.41-.42v-1.66c0-.23.19-.42.41-.42h.42v-2.08a2.9 2.9 0 0 1 2.47-2.88v-6.3a6.23 6.23 0 0 1 6.2-6.24c3.42 0 6.2 2.8 6.2 6.25v6.3a2.9 2.9 0 0 1 2.47 2.87v2.08h.42c.22 0 .41.19.41.42zm-15.7-4.55a2.08 2.08 0 0 0-1.65 2.05v2.08h1.65zm8.27-2.12a.42.42 0 0 0-.42-.42h-3.3a.42.42 0 0 0-.42.42c0 .23.19.42.42.42h3.3c.23 0 .42-.2.42-.42zm.82-2.5a.41.41 0 0 0-.41-.42h-4.96a.41.41 0 0 0-.41.42c0 .23.18.42.41.42h4.96c.23 0 .41-.2.41-.42zm0-2.5a.42.42 0 0 0-.41-.42h-4.96a.42.42 0 0 0-.41.42c0 .23.18.42.41.42h4.96c.23 0 .41-.2.41-.42zm4.96 9.17c0-1.01-.71-1.85-1.65-2.05v4.13h1.65z"/></defs><g transform="translate(-351 -638)"><use fill="#8b8175" xlink:href="#a"/></g></svg>