<svg xmlns="http://www.w3.org/2000/svg" xmlns:xlink="http://www.w3.org/1999/xlink" width="27" height="26" viewBox="0 0 27 26"><defs><path id="a" d="M374 757zm-22.79 0s-.36-2.38-.1-3.17c.25-.8.73-1.22 1.24-1.37.51-.14 3.36-1.69 3.36-1.69s-.29-.93.22-1.54 1.4-.9 1.4-.9-.05-.36.1-.72c.15-.36.7-.79.7-.79s0-.36.07-.75c.07-.4.47-1.2.51-2.2.04-1 0-3.05.18-3.52.19-.47.66-.58 1.03-.65.36-.07.7-.43.7-.43s-.19-.6-.4-.75c-.23-.15-.6.03-.85.18-.26.14-.3-.11-.37-.3l-.25-.6-.15.07c-.14.07-.22-.14-.22-.14l.08-.87-.11-.18s0-.97-.08-1.15c-.07-.18-.1-.36-.03-.54.07-.18.36-.25.65-.43.3-.18.95-.82 2.05-.43 1.1.4 1.2 1.62 1.17 2.05-.03.43.11.72.55 1.19.44.46.88 1.26 1.28 1.54.4.29.88 0 1.57.61.7.62.37 1.48.37 2.77 0 1.3.47 2.52.66 4.67.18 2.16-.95 3.02-.95 3.02s.58-.25 1.06-.1c.47.14.29.28.66.57.36.29.25.29.91.54a9.48 9.48 0 0 1 2.45 1.83c.59.61.73 1.62 1.76 2.34 1.02.72 1.57 1.83 1.57 1.83zm9.92-8.6s1.12-.4 2.5-.84c1.4-.43 2.42-.74 2.37-1.6-.05-.87-.58-1.51-.58-1.51s.46.98.07 1.5c-.4.53-.53.53-1.66.9-1.49.47-2.7 1.55-2.7 1.55zm-.42-12.99c.27.05-.15.36-.07.36.07 0 .78.15.87.5.1.37.22.7.35.75.12.05-.69.34-.69.34s.71.1.98.26c.27.17.7.38.7.38s-.38-.57-.6-.84a1.5 1.5 0 0 1-.37-1.15c.05-.52-.02-.9-.46-1.34-.42-.4-1.16-.47-1.24-.48.1.01.67.22.6.4-.07.2-1.02.3-1.02.3s.68.48.95.52zm-.54-1.22zm-.44 11.96s1.27-.1 1.88-.67c0 0-.36-1.03-.53-1.27-.18-.24-.32-.63-.32-.63l-.44-.07s-.3.91-.37 1.3l-.22 1.34zm0 1.49c.18-.03.8-.34.8-.34s-.4 0-.9.07c-.48.07-.4.27-.4.27s.33.02.5 0zm8.95 5.24s-1.07-1.22-1.56-1.41c-.48-.2-3.41-1.63-4.41-2.06-1-.43-2.63-.27-2.63-.27s1.39.39 1.82.58c.44.2 1.88.86 3.27 1.32 1.4.45 3.51 1.84 3.51 1.84z"/></defs><g transform="translate(-349 -732)"><use fill="#8b8175" xlink:href="#a"/></g></svg>