<svg xmlns="http://www.w3.org/2000/svg" xmlns:xlink="http://www.w3.org/1999/xlink" width="23" height="16" viewBox="0 0 23 16"><defs><path id="a" d="M355.05 195.67c0-.2.16-.35.35-.35h2.8a.35.35 0 0 1 0 .7h-2.8a.35.35 0 0 1-.35-.35zm15.4 0c0-.2.15-.35.35-.35h2.8a.35.35 0 0 1 0 .7h-2.8a.35.35 0 0 1-.35-.35zm-4.1-.3c.26.23.37.57.3.91l-.03.09h7.33a1.05 1.05 0 0 1 .05 2.1V208h-.05v.48a.35.35 0 0 1-.3.52c-.76 0-1.24-.4-1.54-1H356.9c-.3.6-.78 1-1.54 1a.35.35 0 0 1-.3-.52V208H355v-9.53a1.05 1.05 0 0 1 .05-2.1h8.02l-.02-.09a.98.98 0 0 1 .3-.91c.28-.26 2.72-.26 3 0z"/></defs><g transform="translate(-353 -194)"><use fill="#8b8175" xlink:href="#a"/></g></svg>