<svg xmlns="http://www.w3.org/2000/svg" xmlns:xlink="http://www.w3.org/1999/xlink" width="20" height="20" viewBox="0 0 20 20"><defs><path id="a" d="M873 41.49c0 1.15-.23 2.26-.68 3.31a8.35 8.35 0 0 1-4.53 4.52 8.36 8.36 0 0 1-6.6 0 8.38 8.38 0 0 1-4.52-4.52 8.33 8.33 0 0 1-.67-3.31c0-1.15.22-2.25.67-3.3a8.36 8.36 0 0 1 4.52-4.51 8.27 8.27 0 0 1 6.6 0c2.11.9 3.64 2.42 4.53 4.5.45 1.06.68 2.16.68 3.31zm-1.03 0a7.48 7.48 0 0 0-14.94 0 7.57 7.57 0 0 0 2.17 5.3 7.6 7.6 0 0 0 5.29 2.19 7.46 7.46 0 0 0 7.48-7.49zm-4.34 2.55c.2.2.21.5 0 .72a.53.53 0 0 1-.72 0l-2.78-2.78a.49.49 0 0 1-.14-.42l-.02-.07v-4.9c0-.28.25-.51.52-.51.28 0 .54.23.54.52v4.82z"/></defs><g transform="translate(-854 -31)"><use fill="#8b8175" xlink:href="#a"/></g></svg>