<svg xmlns="http://www.w3.org/2000/svg" xmlns:xlink="http://www.w3.org/1999/xlink" width="64" height="84" viewBox="0 0 64 84"><defs><path id="a" d="M1185.5 497a20.5 20.5 0 0 1 20.5 20.5c0 11.32-21.16 40.5-20.5 40.5.34 0-20.5-29.18-20.5-40.5a20.5 20.5 0 0 1 20.5-20.5z"/><path id="d" d="M1185.5 508a9.5 9.5 0 1 1 0 19 9.5 9.5 0 0 1 0-19z"/><mask id="c" width="2.02" height="2.02" x="-1.01" y="-1.01"><path fill="#fff" d="M1162.5 494.5h45v65h-45z"/><use xlink:href="#a"/></mask><filter id="b" width="85" height="105" x="1152.5" y="484.5" filterUnits="userSpaceOnUse"><feOffset dx="2.8" dy="2.8" in="SourceGraphic" result="FeOffset1023Out"/><feGaussianBlur in="FeOffset1023Out" result="FeGaussianBlur1024Out" stdDeviation="3.44 3.44"/></filter></defs><g transform="translate(-1155 -487)"><g filter="url(#b)"><use fill="none" stroke="#000" stroke-opacity=".09" mask="url(&quot;#c&quot;)" xlink:href="#a"/><use fill-opacity=".09" xlink:href="#a"/></g><use fill="#6d3100" xlink:href="#a"/></g><g transform="translate(-1155 -487)"><use fill="#fff" xlink:href="#d"/></g></svg>