<svg xmlns="http://www.w3.org/2000/svg" xmlns:xlink="http://www.w3.org/1999/xlink" width="14" height="22" viewBox="0 0 14 22"><defs><path id="a" d="M531 38.33c0 3.36-4.99 11.17-5.2 11.5a.4.4 0 0 1-.1.1.35.35 0 0 1-.5-.1c-.22-.33-5.2-8.14-5.2-11.5 0-3.49 2.47-6.33 5.5-6.33s5.5 2.84 5.5 6.33zm-.74 0c0-3.06-2.13-5.55-4.76-5.55s-4.77 2.5-4.77 5.55c0 2.67 3.68 8.81 4.77 10.57 1.09-1.76 4.76-7.9 4.76-10.57zm-1.83-.46c0 1.73-1.31 3.13-2.93 3.13s-2.93-1.4-2.93-3.13 1.3-3.13 2.93-3.13c1.62 0 2.93 1.4 2.93 3.13zm-.73 0c0-1.3-.99-2.35-2.2-2.35-1.22 0-2.2 1.05-2.2 2.35s.98 2.35 2.2 2.35c1.21 0 2.2-1.06 2.2-2.35z"/></defs><g transform="translate(-518 -30)"><use fill="#8b8175" xlink:href="#a"/></g></svg>