<svg xmlns="http://www.w3.org/2000/svg" xmlns:xlink="http://www.w3.org/1999/xlink" width="19" height="18" viewBox="0 0 19 18"><defs><path id="a" d="M524.05 5232c-.63 0-1.38-.16-2.21-.47a16.6 16.6 0 0 1-5.58-3.81 16.56 16.56 0 0 1-3.82-5.57c-.62-1.65-.63-3 0-3.63l.27-.28c.57-.6 1.21-1.27 2.06-1.24.59.03 1.15.39 1.74 1.11 1.71 2.13.94 2.9.04 3.77l-.16.16c-.14.14-.42.82 2.16 3.4.84.83 1.56 1.45 2.13 1.82.36.23 1 .59 1.27.32l.16-.16c.88-.89 1.64-1.66 3.78.05.72.58 1.08 1.15 1.1 1.73.04.85-.63 1.5-1.23 2.06l-.29.27c-.3.31-.8.47-1.42.47zm-9.34-14.5c-.6 0-1.15.58-1.63 1.08l-.29.3c-.46.46-.41 1.67.12 3.1a16.06 16.06 0 0 0 3.7 5.38 16.1 16.1 0 0 0 5.4 3.7c1.43.53 2.65.58 3.1.11l.3-.28c.52-.49 1.1-1.05 1.08-1.67-.01-.42-.32-.88-.92-1.36-1.78-1.42-2.27-.92-3.1-.09l-.16.17c-.4.4-1.04.3-1.9-.26-.6-.4-1.35-1.03-2.22-1.9-2.14-2.12-2.82-3.43-2.15-4.1l.16-.16c.84-.82 1.34-1.32-.09-3.1-.48-.59-.93-.9-1.36-.91h-.04z"/></defs><g transform="translate(-510 -5215)"><use fill="#8b8175" xlink:href="#a"/></g></svg>