<svg xmlns="http://www.w3.org/2000/svg" xmlns:xlink="http://www.w3.org/1999/xlink" width="20" height="20" viewBox="0 0 20 20"><defs><path id="a" d="M1472.85 5231.14l-.01.01a8.48 8.48 0 0 1-6.05 2.84H1466.21a8.48 8.48 0 0 1-6.04-2.83l-.02-.02a8.46 8.46 0 0 1 .16-11.45 8.48 8.48 0 0 1 5.9-2.68h.16a3.36 3.36 0 0 1 .26 0h.16a8.47 8.47 0 0 1 6.06 14.13zm-12.4-.56c.74-.5 1.54-.9 2.37-1.2a10.83 10.83 0 0 1-.7-3.59h-3.53a7.88 7.88 0 0 0 1.85 4.8zm-1.86-5.37h3.52c.04-1.34.31-2.64.8-3.84-.8-.29-1.58-.67-2.3-1.14a7.88 7.88 0 0 0-2.02 4.98zm13.8-4.98c-.72.47-1.5.85-2.3 1.14.49 1.2.76 2.5.8 3.84h3.52a7.88 7.88 0 0 0-2.01-4.98zm-6.18-2.46a10.26 10.26 0 0 0-2.49 3.24c.8.22 1.64.35 2.49.37zm-2.73 3.78a10.23 10.23 0 0 0-.78 3.66h3.5v-3.24c-.93-.02-1.84-.17-2.72-.42zm3.31 3.66h3.51c-.03-1.28-.3-2.51-.78-3.66-.88.26-1.8.4-2.73.42zm2.49-4.2a10.25 10.25 0 0 0-2.49-3.24v3.61c.85-.02 1.68-.15 2.49-.37zm2.7-1.21a7.9 7.9 0 0 0-4.45-2.15c.97.93 1.75 2 2.31 3.18.75-.26 1.47-.6 2.14-1.03zm-6.51-2.15a7.9 7.9 0 0 0-4.45 2.15c.67.43 1.39.77 2.14 1.03a10.83 10.83 0 0 1 2.3-3.18zm-2.1 11.54c.92-.28 1.87-.43 2.84-.46v-2.94h-3.51c.03 1.18.26 2.32.68 3.4zm.23.54c.6 1.32 1.48 2.51 2.6 3.5v-3.9c-.88.02-1.76.15-2.6.4zm5.8 0c-.84-.25-1.72-.38-2.6-.4v3.9c1.12-.99 2-2.18 2.6-3.5zm.22-.54c.42-1.08.65-2.22.68-3.4h-3.5v2.94c.96.03 1.91.18 2.82.46zm.56.18c.83.3 1.63.7 2.38 1.21a7.88 7.88 0 0 0 1.85-4.79h-3.52a10.82 10.82 0 0 1-.71 3.58zm-4.71 3.97a10.8 10.8 0 0 1-2.43-3.43c-.77.28-1.5.65-2.2 1.11a7.9 7.9 0 0 0 4.63 2.32zm6.69-2.32c-.7-.46-1.43-.83-2.2-1.1a10.8 10.8 0 0 1-2.43 3.42 7.9 7.9 0 0 0 4.63-2.32z"/></defs><g transform="translate(-1456 -5215)"><use fill="#8b8175" xlink:href="#a"/></g></svg>